<svg version="1.1" xmlns="http://www.w3.org/2000/svg" width="64.508" height="50" viewBox="0 0 64.508 50">
  <path d="M33.539 13.915c1.121 0.569 2.19 1.213 3.249 1.889l-0.518 0.259c-0.497 -0.183 -0.497 -0.183 -1.085 -0.469C33.357 14.751 31.563 14.192 29.534 14.508c-0.608 0.298 -0.608 0.298 -1.036 0.777v1.036q0.688 -0.121 1.376 -0.243l0.774 -0.137c0.72 -0.127 0.72 -0.127 1.476 -0.398 2.041 -0.262 3.438 0.256 5.181 1.295l0.224 -0.49c0.409 -0.758 0.806 -0.976 1.59 -1.324 1.151 -0.167 1.648 -0.104 2.639 0.518 1.295 1.218 1.976 2.897 2.044 4.661 0.006 0.59 0.003 1.178 -0.003 1.768l-0.004 0.619q-0.005 0.751 -0.013 1.502h-0.259l-0.094 -0.494a191.192 191.192 0 0 0 -0.456 -2.242l-0.148 -0.778C42.453 18.827 41.952 17.842 40.674 16.58l-1.295 0.259c-0.087 0.797 -0.087 0.797 0.465 1.29l0.62 0.572C43.067 21.244 43.067 21.244 43.103 23.284c-0.029 0.642 -0.067 1.01 -0.356 1.587l0.955 0.065c1.064 0.13 1.643 0.461 2.412 1.231 0.459 0.917 0.424 1.851 0.259 2.85 -1.131 2.269 -3.406 3.974 -5.7 4.922l-0.518 -0.259 0.446 -0.324C42.277 32.102 43.656 30.76 44.819 29.016c0.021 -0.604 0.023 -1.209 0 -1.813l-1.036 -0.518 -0.19 0.664C42.208 32.034 42.208 32.034 39.897 33.679l-0.518 0.259 0.259 0.777c0.089 1.387 0.12 2.238 -0.777 3.368 -1.352 0.901 -3.095 0.81 -4.663 0.518 -1.146 -0.399 -2.194 -0.974 -3.249 -1.569 -0.728 -0.409 -1.392 -0.782 -2.192 -1.022q-0.649 0.386 -1.295 0.777c-1.335 0.17 -1.798 0.181 -2.931 -0.567 -1.872 -1.959 -2.076 -4.091 -2.024 -6.687l0.007 -0.683c0.006 -0.549 0.016 -1.099 0.025 -1.648l-0.875 -0.48C20.781 26.239 20.336 25.829 19.948 24.871c-0.288 -1.377 0.304 -2.355 1.027 -3.489C22.372 19.644 24.405 18.498 26.425 17.617h0.518l-0.084 -0.465c-0.149 -0.981 -0.249 -1.668 0.1 -2.612 1.808 -1.983 4.336 -1.616 6.58 -0.625" fill="#F4F8F8"/>
  <path d="M27.979 19.689c1.08 0.877 1.63 2.001 1.781 3.368 0.018 0.345 0.031 0.691 0.032 1.036q-0.736 0.318 -1.473 0.632l-0.829 0.355c-1.09 0.417 -2.055 0.604 -3.219 0.584L23.316 25.648c0.357 -2.214 1.155 -3.983 2.737 -5.602 0.737 -0.416 1.093 -0.454 1.927 -0.356" fill="#0F6D76"/>
  <path d="M35.751 17.358c0.291 0.599 0.291 0.599 0.259 1.295 -0.514 1.298 -1.175 2.573 -2.496 3.145L32.902 22.021q-0.748 -0.661 -1.49 -1.328l-0.423 -0.372C30.073 19.493 29.38 18.686 28.757 17.617v-0.518c2.262 -0.696 4.914 -1.082 6.995 0.259" fill="#0E6C75"/>
  <path d="M28.238 27.202c0.955 0.259 0.955 0.259 1.554 0.518 -0.073 2.1 -0.313 4.069 -1.295 5.959l-0.777 0.518c-2.96 -3.103 -2.96 -3.103 -3.222 -5.392C24.611 27.979 24.611 27.979 24.921 27.544c0.94 -0.687 2.205 -0.439 3.317 -0.342" fill="#0E6C75"/>
  <path d="M43.005 26.425c-0.463 2.173 -1.125 4.148 -2.86 5.634C39.637 32.384 39.637 32.384 39.006 32.4c-0.941 -0.39 -1.48 -0.951 -1.959 -1.83 -0.247 -0.856 -0.401 -1.708 -0.518 -2.591 2.062 -1.397 4.028 -1.678 6.477 -1.554" fill="#0F6D76"/>
  <path d="M38.342 17.617c1.486 0.991 2.574 2.558 3.368 4.145 0.025 0.388 0.034 0.777 0.032 1.166l0.002 0.623C41.71 24.093 41.71 24.093 41.451 24.611c-1.734 0.667 -3.302 0.164 -4.922 -0.518 0.615 -4.679 0.615 -4.679 1.813 -6.477" fill="#0F6D76"/>
  <path d="M33.258 30.067c2.08 0.746 3.546 2.777 4.566 4.648 -1.34 0.439 -2.511 0.606 -3.918 0.599l-0.541 0.012c-1.146 0.001 -1.895 -0.147 -2.794 -0.871 -0.251 -1.081 0.047 -1.727 0.599 -2.639q0.332 -0.505 0.696 -0.988l0.351 -0.466c0.426 -0.311 0.426 -0.311 1.041 -0.296" fill="#0C6B74"/>
  <path d="M39.637 16.321c0.682 0.02 1.15 0.139 1.682 0.577 1.235 1.334 1.574 2.652 1.913 4.41l0.166 0.779C43.783 23.93 43.783 23.93 43.783 24.871h-1.036c0.018 -0.179 0.036 -0.358 0.054 -0.541 0.117 -2.019 -0.286 -3.125 -1.609 -4.64 -0.754 -0.803 -1.529 -1.577 -2.332 -2.332z" fill="#16717A"/>
  <path d="M43.523 26.425c1.263 0.486 1.263 0.486 1.554 0.777 0.171 1.197 0.037 1.893 -0.664 2.85 -2.889 3.516 -2.889 3.516 -4.777 4.145l-0.259 0.518 -0.259 -1.036 0.842 -0.437c1.786 -1.039 2.412 -2.59 3.044 -4.485 0.204 -0.775 0.366 -1.544 0.518 -2.332" fill="#136F78"/>
  <path d="M23.057 27.202h0.518l-0.081 0.874c0.019 2.202 1.255 3.742 2.752 5.246A85.493 85.493 0 0 0 27.461 34.456l-0.259 0.777c-0.696 0.211 -0.696 0.211 -1.554 0.259 -1.514 -1.127 -2.076 -2.788 -2.503 -4.577 -0.179 -1.23 -0.125 -2.474 -0.088 -3.713" fill="#1A747C"/>
  <path d="M27.202 17.876v0.518l-0.68 0.259c-1.683 0.997 -2.526 2.51 -3.07 4.356 -0.19 0.792 -0.308 1.57 -0.395 2.38 -1.231 -0.194 -1.231 -0.194 -1.813 -0.777 -0.153 -0.803 -0.125 -1.335 0.284 -2.053C22.715 20.929 24.966 17.876 27.202 17.876" fill="#1A747C"/>
  <path d="M32.124 14.249c1.236 0.367 2.427 0.826 3.627 1.295 0.517 0.176 1.035 0.35 1.554 0.518v0.777c-1.295 -0.518 -1.295 -0.518 -1.862 -0.81 -1.903 -0.592 -3.685 -0.201 -5.536 0.406 -0.671 0.153 -1.028 0.111 -1.67 -0.114 0.084 -0.776 0.134 -1.18 0.718 -1.719 1.027 -0.628 2.003 -0.52 3.168 -0.353" fill="#1A747C"/>
  <path d="m29.275 34.974 0.826 0.518c1.91 0.95 4.08 0.738 6.072 0.13l0.609 -0.219C37.306 35.233 37.306 35.233 38.083 35.233c0.095 1.419 0.095 1.419 -0.304 1.988 -1.015 0.737 -2.393 0.471 -3.582 0.344 -1.784 -0.423 -3.378 -1.09 -4.922 -2.073z" fill="#16717A"/>
  <path d="M34.456 25.13c0.049 0.745 0.049 0.745 0 1.554 -0.777 0.518 -0.777 0.518 -1.587 0.437C32.124 26.943 32.124 26.943 31.865 26.684c-0.01 -0.518 -0.011 -1.036 0 -1.554 0.977 -0.676 1.535 -0.432 2.591 0" fill="#1B747C"/>
  <path d="m41.451 32.124 0.777 0.259 -0.397 0.265 -0.51 0.35 -0.51 0.346L40.415 33.679v0.518h-0.777l-0.259 0.518 -0.259 -1.036 1.366 -0.759c0.489 -0.28 0.489 -0.28 0.966 -0.795" fill="#3C8990"/>
  <path d="M41.451 26.166h1.813c0.321 0.926 0.194 1.642 0 2.591l-0.777 -0.518 0.518 -1.813h-1.554z" fill="#C7DDDF"/>
  <path d="m29.016 35.233 2.591 1.295 -0.259 0.777 -2.591 -1.554z" fill="#C0D9DB"/>
  <path d="M43.264 22.539h0.259l0.259 2.332h-1.036c0.227 -2.04 0.227 -2.04 0.518 -2.332" fill="#5E9DA3"/>
  <path d="m27.202 17.876 -2.85 1.554 -0.518 -0.518a105.7 105.7 0 0 1 1.247 -0.664l0.701 -0.374C26.425 17.617 26.425 17.617 27.202 17.876" fill="#C9DEE0"/>
  <path d="M30.829 16.321v0.518c-1.716 0.291 -1.716 0.291 -2.591 0l0.259 -0.518c0.867 -0.258 1.474 -0.286 2.332 0" fill="#CDE0E2"/>
</svg>
